<mxfile host="app.diagrams.net" agent="Mozilla/5.0 (X11; Linux x86_64; rv:128.0) Gecko/20100101 Firefox/128.0" version="24.8.0">
  <diagram name="Page-1" id="EOZGrOeXsRG0h1M1FWlA">
    <mxGraphModel dx="1434" dy="748" grid="1" gridSize="10" guides="1" tooltips="1" connect="1" arrows="1" fold="1" page="1" pageScale="1" pageWidth="850" pageHeight="1100" math="0" shadow="0">
      <root>
        <mxCell id="0" />
        <mxCell id="1" parent="0" />
        <mxCell id="egTRGcNou4aIOp8HcCFy-1" value="&lt;h2&gt;Interfejs użytkownika&lt;/h2&gt;" style="rounded=0;whiteSpace=wrap;html=1;" vertex="1" parent="1">
          <mxGeometry x="355" y="110" width="180" height="150" as="geometry" />
        </mxCell>
        <mxCell id="egTRGcNou4aIOp8HcCFy-2" value="&lt;h1&gt;OpenAI API endpoint&lt;/h1&gt;&lt;div&gt;&lt;br&gt;&lt;/div&gt;" style="sketch=0;points=[[0,0,0],[0.25,0,0],[0.5,0,0],[0.75,0,0],[1,0,0],[0,1,0],[0.25,1,0],[0.5,1,0],[0.75,1,0],[1,1,0],[0,0.25,0],[0,0.5,0],[0,0.75,0],[1,0.25,0],[1,0.5,0],[1,0.75,0]];outlineConnect=0;fontColor=#232F3E;fillColor=#01A88D;strokeColor=#ffffff;dashed=0;verticalLabelPosition=bottom;verticalAlign=top;align=center;html=1;fontSize=12;fontStyle=0;aspect=fixed;shape=mxgraph.aws4.resourceIcon;resIcon=mxgraph.aws4.augmented_ai;" vertex="1" parent="1">
          <mxGeometry x="594" y="885" width="140" height="140" as="geometry" />
        </mxCell>
        <mxCell id="egTRGcNou4aIOp8HcCFy-3" value="" style="rounded=0;whiteSpace=wrap;html=1;align=center;" vertex="1" parent="1">
          <mxGeometry x="210" y="410" width="470" height="360" as="geometry" />
        </mxCell>
        <mxCell id="egTRGcNou4aIOp8HcCFy-5" value="&lt;h1&gt;pgvector &lt;br&gt;&lt;/h1&gt;" style="outlineConnect=0;dashed=0;verticalLabelPosition=bottom;verticalAlign=top;align=center;html=1;shape=mxgraph.aws3.postgre_sql_instance;fillColor=#2E73B8;gradientColor=none;" vertex="1" parent="1">
          <mxGeometry x="170" y="880" width="170" height="150" as="geometry" />
        </mxCell>
        <mxCell id="egTRGcNou4aIOp8HcCFy-7" value="" style="shape=flexArrow;endArrow=classic;startArrow=classic;html=1;rounded=0;exitX=0.5;exitY=0;exitDx=0;exitDy=0;entryX=0.5;entryY=1;entryDx=0;entryDy=0;" edge="1" parent="1" source="egTRGcNou4aIOp8HcCFy-3" target="egTRGcNou4aIOp8HcCFy-1">
          <mxGeometry width="100" height="100" relative="1" as="geometry">
            <mxPoint x="310" y="340" as="sourcePoint" />
            <mxPoint x="410" y="200" as="targetPoint" />
          </mxGeometry>
        </mxCell>
        <mxCell id="egTRGcNou4aIOp8HcCFy-9" value="&lt;h3&gt;Word embeddings&lt;/h3&gt;" style="text;html=1;align=center;verticalAlign=middle;resizable=0;points=[];autosize=1;strokeColor=none;fillColor=none;" vertex="1" parent="1">
          <mxGeometry x="550" y="800" width="140" height="60" as="geometry" />
        </mxCell>
        <mxCell id="egTRGcNou4aIOp8HcCFy-10" value="" style="shape=flexArrow;endArrow=classic;startArrow=classic;html=1;rounded=0;entryX=0.5;entryY=0;entryDx=0;entryDy=0;entryPerimeter=0;exitX=0.25;exitY=1;exitDx=0;exitDy=0;" edge="1" parent="1" source="egTRGcNou4aIOp8HcCFy-3" target="egTRGcNou4aIOp8HcCFy-5">
          <mxGeometry width="100" height="100" relative="1" as="geometry">
            <mxPoint x="370" y="630" as="sourcePoint" />
            <mxPoint x="420" y="760" as="targetPoint" />
          </mxGeometry>
        </mxCell>
        <mxCell id="egTRGcNou4aIOp8HcCFy-12" value="" style="shape=flexArrow;endArrow=classic;startArrow=classic;html=1;rounded=0;exitX=0.5;exitY=0;exitDx=0;exitDy=0;exitPerimeter=0;entryX=0.785;entryY=1.013;entryDx=0;entryDy=0;entryPerimeter=0;" edge="1" parent="1" source="egTRGcNou4aIOp8HcCFy-2" target="egTRGcNou4aIOp8HcCFy-3">
          <mxGeometry width="100" height="100" relative="1" as="geometry">
            <mxPoint x="350" y="590" as="sourcePoint" />
            <mxPoint x="450" y="490" as="targetPoint" />
            <Array as="points">
              <mxPoint x="620" y="830" />
            </Array>
          </mxGeometry>
        </mxCell>
        <mxCell id="egTRGcNou4aIOp8HcCFy-15" value="&lt;h1&gt;Backend API&lt;br&gt;&lt;/h1&gt;" style="text;html=1;align=center;verticalAlign=middle;whiteSpace=wrap;rounded=0;" vertex="1" parent="1">
          <mxGeometry x="372.5" y="780" width="167.5" height="30" as="geometry" />
        </mxCell>
        <mxCell id="egTRGcNou4aIOp8HcCFy-16" value="" style="outlineConnect=0;dashed=0;verticalLabelPosition=bottom;verticalAlign=top;align=center;html=1;shape=mxgraph.aws3.lambda_function;fillColor=#F58534;gradientColor=none;" vertex="1" parent="1">
          <mxGeometry x="240" y="530" width="69" height="72" as="geometry" />
        </mxCell>
        <mxCell id="egTRGcNou4aIOp8HcCFy-17" value="&lt;h2&gt;Cosine similarity&lt;/h2&gt;" style="text;html=1;align=center;verticalAlign=middle;whiteSpace=wrap;rounded=0;" vertex="1" parent="1">
          <mxGeometry x="318" y="551" width="165" height="30" as="geometry" />
        </mxCell>
        <mxCell id="egTRGcNou4aIOp8HcCFy-18" value="" style="outlineConnect=0;dashed=0;verticalLabelPosition=bottom;verticalAlign=top;align=center;html=1;shape=mxgraph.aws3.lambda_function;fillColor=#F58534;gradientColor=none;" vertex="1" parent="1">
          <mxGeometry x="240" y="440" width="69" height="72" as="geometry" />
        </mxCell>
        <mxCell id="egTRGcNou4aIOp8HcCFy-19" value="&lt;h2&gt;Dopasowanie sekwencji zdań&lt;br&gt;&lt;/h2&gt;" style="text;html=1;align=center;verticalAlign=middle;whiteSpace=wrap;rounded=0;" vertex="1" parent="1">
          <mxGeometry x="318" y="461" width="175" height="30" as="geometry" />
        </mxCell>
        <mxCell id="egTRGcNou4aIOp8HcCFy-23" value="" style="shape=image;imageAspect=0;aspect=fixed;verticalLabelPosition=bottom;verticalAlign=top;image=https://teamquest.pl/img/static/blog/fastapi.png.webp;" vertex="1" parent="1">
          <mxGeometry x="550" y="500.00000000000006" width="220" height="79.54" as="geometry" />
        </mxCell>
        <mxCell id="egTRGcNou4aIOp8HcCFy-26" value="" style="shape=image;imageAspect=0;aspect=fixed;verticalLabelPosition=bottom;verticalAlign=top;image=https://upload.wikimedia.org/wikipedia/commons/c/c3/Python-logo-notext.svg;" vertex="1" parent="1">
          <mxGeometry x="602.5" y="356" width="123" height="135" as="geometry" />
        </mxCell>
        <mxCell id="egTRGcNou4aIOp8HcCFy-27" value="" style="shape=image;imageAspect=0;aspect=fixed;verticalLabelPosition=bottom;verticalAlign=top;image=https://upload.wikimedia.org/wikipedia/commons/a/a7/React-icon.svg;" vertex="1" parent="1">
          <mxGeometry x="474" y="50" width="120" height="120" as="geometry" />
        </mxCell>
      </root>
    </mxGraphModel>
  </diagram>
</mxfile>
